<?xml version="1.0" standalone="no"?>
<!DOCTYPE svg PUBLIC "-//W3C//DTD SVG 20010904//EN"
 "http://www.w3.org/TR/2001/REC-SVG-20010904/DTD/svg10.dtd">
<svg version="1.0" xmlns="http://www.w3.org/2000/svg"
 width="666.000000pt" height="375.000000pt" viewBox="0 0 666.000000 375.000000"
 preserveAspectRatio="xMidYMid meet">

<g transform="translate(0.000000,375.000000) scale(0.100000,-0.100000)"
fill="#000000" stroke="none">
<path d="M6073 2522 c-150 -119 -410 -315 -446 -335 -47 -28 -234 -173 -301
-235 -32 -29 -120 -100 -195 -157 -75 -56 -156 -118 -181 -137 -25 -19 -132
-101 -238 -183 -189 -145 -192 -148 -206 -199 -79 -286 -147 -549 -142 -553 3
-4 43 5 88 19 186 57 785 255 805 266 21 12 65 82 195 312 66 117 108 190 469
820 238 416 262 460 255 460 -3 0 -49 -35 -103 -78z"/>
</g>
</svg>
